Coordinates
version=1
nRows=19
nColumns=24
inDegrees=yes

Units are S.I. units (second, meters, Newtons, ...)
If the header above contains a line with 'inDegrees', this indicates whether rotational values are in degrees (yes) or radians (no).

endheader
time	pelvis_tilt	pelvis_list	pelvis_rotation	pelvis_tx	pelvis_ty	pelvis_tz	hip_flexion_r	hip_adduction_r	hip_rotation_r	knee_angle_r	ankle_angle_r	subtalar_angle_r	mtp_angle_r	hip_flexion_l	hip_adduction_l	hip_rotation_l	knee_angle_l	ankle_angle_l	subtalar_angle_l	mtp_angle_l	lumbar_extension	lumbar_bending	lumbar_rotation
1.0	3.9479634381496496	0.16177747442773044	2.853262987065526	0.5878138073690868	1.03201806300506	0.06383580828297421	-5.2027529476129235	7.0189902962133015	-0.6419164189432602	30.63063913520252	15.484583039034833	1.7502723509866382e-06	-2.796688130597822e-10	15.291605971712507	-5.240368143604828	-3.034277589729677	-66.92511269068487	1.3478342607381204	1.0424843678843199e-06	-6.400113252143322e-16	-16.232549953716596	4.526489859506769	0.7190903317870778
1.017	4.932653195414962	0.05787673292006531	2.1564874579367204	0.5812576264821411	1.0681062209709167	0.037419195321054116	6.735122332728516	2.6258607810779404	-7.32938084676274	-7.729694869740207	12.841693805152357	-3.0559036899888783e-06	-4.1406107133752104e-11	16.29161527791799	-2.1449906368899887	-6.380313200909946	-53.085991410378774	2.458680104722219	-4.154398283558258e-06	6.839626603629378e-16	-17.188476903817875	1.9729460934916898	-0.5429410889665522
1.033	4.742193310448514	-3.582129439120624	-3.9598835647774155	0.5897793217594341	1.042375463802731	0.05993365302649796	-22.880697418492673	3.993484827191601	-0.8796891126353783	-26.062046193245706	11.58975092497424	-3.677744962009358e-07	7.735436880660679e-11	37.40925148228915	-7.043918103011837	-8.233420432804696	-42.62560269720056	-5.184221731865442	-4.634489528973605e-06	-3.0323763453200403e-16	-16.864595726038136	1.6757710614549342	7.394950056271597
1.05	5.068567530719443	0.7087575112642273	3.350175754830307	0.5839543239191294	1.04694737060534	0.03264034820329943	11.013227949578688	1.5916471466162396	-6.453519828164811	-2.6336933126694033	10.488317998270631	-4.921762049299906e-06	1.34772794086208e-09	4.056684124691319	-1.2264958289378902	-1.4923171625084155	-46.04622700326941	5.7691873458401615	-2.006472190071605e-07	-2.7270995035946223e-16	-16.860975207302666	2.6005337108567277	-3.470977930466038
1.067	5.1178427840164336	-3.247786054578674	-3.4515776041885466	0.591478421813814	1.0336208849484776	0.05875564745403954	-22.66552088101148	4.47662992907124	-0.3736001263559734	-20.276883438568476	9.735478499109675	1.182688821523962e-06	-5.043527810388125e-10	31.82593793598798	-6.795978450528082	-9.078229411020788	-33.9796897024601	-6.042246381059168	-5.150643632516741e-06	-6.068184162176879e-16	-16.67564745522686	2.0123229315965623	6.170757813167169
1.083	4.3961200548832515	1.0788826760198746	2.2758978153532383	0.58654223443433	1.021122185724354	0.03358411434255986	5.960195131428259	1.3178843343819202	-4.9633525060086185	8.149499840585147	3.2320121299816655	-1.153970939815944e-06	3.872036335055933e-10	-0.2275524867857186	-1.4619741293845512	-2.684585421696532	-34.92537437629074	5.35434610726526	-1.7208652414274293e-06	-1.4994394825821611e-15	-15.547058870389478	1.5104455491439819	-3.2593808103923827
1.1	6.085539300335377	0.43891074291480736	-0.42690096823998114	0.6065273592677923	1.0538010436322642	0.0265483922610401	4.623202504889038	-2.8661128045537687	-5.60242797681939	-56.00507895025763	1.333319103529016	-5.210381013002435e-06	3.2202579563073365e-10	16.189409449419795	-0.5996443642498184	-6.466437195712192	-51.79436728252932	-1.2339964919038704	-2.9380013103718745e-06	1.9231294981137367e-16	-15.618337348027485	-1.3434397514711063	-1.179735790624881
1.117	3.288663824264132	-7.15906744159975	-4.736520244945144	0.5629515361141845	1.0223667581744427	0.10694301242605095	-52.451145096131576	15.871945119336274	8.414203734775574	42.43245224042075	28.372433772169256	5.643819568825037e-06	1.1988797069542053e-10	50.62570773440324	-15.118005108894103	-18.424471156519253	-14.178299715022296	-11.641586649749458	-8.87483872343393e-06	-1.7313328187342488e-16	-18.37095708079451	8.264369553412651	14.250644039665913
1.133	4.855184989616895	1.9503693795860095	4.1217974883153925	0.5949548218205295	1.0227832473924456	0.0018561053197370045	27.807659687884325	-2.9603762961574303	-6.672750903425463	-21.60909320985886	-0.8510900936173336	-5.3407915962875255e-06	1.2004293023371226e-10	-19.293677609037008	2.9962089873285906	3.0461676794214814	-28.74053136468754	9.227487829766776	4.443843310402749e-06	-5.779193468751624e-16	-14.444646315330733	0.41063739378959463	-9.912588934896771
1.15	3.74297614769869	-4.343065185141689	-0.3110374965105105	0.5794261812388984	1.0134715118270827	0.06900801055438081	-20.73369010638844	10.270328801265467	3.8417761369678534	21.86340442122366	18.389557122707096	1.1357881495896216e-06	7.660726686554059e-10	18.422156013228232	-8.864635506861836	-7.416979659684629	-17.135244210969777	-3.151361506279917	-4.789484663957846e-07	-3.7912610255683405e-16	-16.31857914795287	7.322044010911005	3.9647997844182608
1.167	4.7029305844723925	-5.424631012395604	-3.896762898591639	0.5722075240494685	1.0656611130064981	0.06894493839992802	-26.894739304442087	8.148639137593168	-2.697260876901848	-12.472240858161362	17.723589576214415	-1.1290282326011256e-06	2.43475630088148e-10	45.099672775761974	-9.328982471982023	-16.530615321047428	-25.713848625268138	-7.779032998507207	-9.07956510311803e-06	-4.3452981527218434e-16	-18.519472067982402	4.188358722937174	10.143097128267517
1.183	5.025961253211442	-4.905236350865305	-3.9315067687277745	0.5964197463701456	1.0220746341404199	0.08364476669268678	-34.303414039254456	7.660470952645992	4.0483196425918315	-17.525536968126325	7.3947921592153545	-7.795853931533287e-07	-6.416310852331851e-10	38.070651917140786	-10.29806139128624	-10.917457003511553	-27.94238326309285	-7.387590567017067	-6.472261827135282e-07	-3.415483230096512e-15	-16.83450983839269	5.50222432247565	9.555154097710844
1.2	3.567952332418893	-4.372327920150195	0.08756432405466708	0.5636436266421487	1.0261672640043984	0.04122413143294104	-4.5507919134893715	7.672584215277358	-0.9650920796642177	14.236522536739546	17.690599412765973	-1.996041896264307e-06	-7.045121997834908e-10	6.443281717306716	-5.6377767122024265	-3.4937615358315703	3.418313562811006	5.095254509780232	-1.0142527102571473e-08	-5.209798810811854e-16	-17.134311219510863	6.041033764391363	0.8592033871181819
1.217	3.1175652805806218	-5.357393984495802	-1.2224527838765264	0.5580444603348751	0.9952148137476671	0.06222396804905363	-22.884911603655613	11.83338856179136	5.622973900257902	49.106419679594964	22.18016970791536	2.4320235107540056e-06	-1.8717949489708893e-10	8.95545108689646	-8.185095539710126	-2.8797289928534426	16.625380793054784	3.892409474951879	1.3195229381246894e-06	-5.672326701035048e-16	-17.597420839681057	7.728004592818401	3.7998305628527156
1.233	4.636290224331627	-4.728931603746826	-2.5880392524140117	0.5908189822873854	1.008435967940611	0.05727098584746347	-20.353432446652175	6.0044052384812	3.84865012208063	-15.172217240291564	12.04413852719838	-4.596236474813811e-07	3.9393795357128805e-11	19.70527679056978	-7.50339206217849	-1.2865234266807564	-21.1045584346756	-1.250314141519575	2.6422078597455805e-06	-1.2672487160488319e-15	-16.407500655697426	4.660021861832853	3.6017763311293183
1.25	4.059222281783353	-3.431903682359012	-3.4311686097027807	0.5722162508601732	1.003622903021274	0.009324078217739083	-3.7835770307744063	1.14782179022514	0.7030198834182695	-10.022228785280259	12.496501626363935	2.061136396866371e-06	-3.930084659823256e-10	-2.333817338166252	-1.0825568310770315	2.473497896314159	16.037226775902244	6.305320527204897	-1.4849145840793347e-07	1.348018925727449e-15	-16.06460681751541	-0.3742546627497929	-1.5504759001948072
1.267	4.0210833769115295	-4.3517969644728005	-1.968096047108407	0.5801470471673585	0.998529455202251	0.03298435762727444	-11.426752203896546	4.932474552315641	4.183030121837234	-0.10674103324229733	17.625755721745712	1.393080718094905e-06	3.658772572151906e-11	4.785829668223839	-4.156981309223243	3.125286404682123	-1.2118834279627908	1.2630950712966516	4.62217304737012e-06	3.31296826115758e-16	-15.850347349273356	3.7391585842817925	-0.02387698430846541
1.283	3.476624785723483	-7.092960048223718	-8.863856905100278	0.5749363129654654	0.9995041987579597	0.09048723371720228	-58.6671705903528	11.710235028565604	13.946988499356461	19.63101695113724	27.707471989220206	7.466538852422043e-06	1.2129036807065193e-10	48.6038941141738	-12.142693030059501	-10.296290005795964	-7.74255756344419	-10.583610447839487	-6.2784947928014895e-06	-8.96699457477096e-17	-17.49169109779193	3.7085799964576975	14.57090394213823
1.3	4.226705118626133	-1.073670317571929	-4.2552763964813645	0.5758647965900653	1.020468248581053	0.0187173410679901	-7.364676959608953	-0.9933284101605366	-1.364407283710079	-13.27695296137255	8.948195393756343	-1.5218020602982867e-07	7.659250962605581e-10	10.232621231542971	-0.1686312467408353	-4.316666190083231	-5.046840939066019	2.628558266095281	-5.9432505997297515e-06	1.4940333066735258e-15	-16.240642313300317	-3.0663402723720745	1.1880670890761307
